<svg version="1" xmlns="http://www.w3.org/2000/svg" width="1365.333" height="1365.333" viewBox="0 0 1024.000000 1024.000000"><path d="M128 512v384h768V128H128v384zm736 0v352H160V160h704v352z"/><path d="M221 513.5V630h150v-26H252v-85h111v-26l-55.2-.2-55.3-.3-.3-34.8-.2-34.7h116v-26H221v116.5zM423 513.5V630h31l.2-49.3.3-49.2 16.5-.3c29.6-.5 40.6 1.9 50.7 11.1 8.5 7.8 13.9 16.8 32.2 53.9l16.6 33.8h16.8c9.2 0 16.7-.3 16.7-.6 0-1.5-36.5-72.9-41.1-80.3-6.4-10.4-16.7-21.4-23.8-25.4l-5.4-3.1 3.4-1.2c11.9-4.1 23.7-13.9 29.2-24.1 4.4-8.3 6.7-19 6.7-31.5 0-39.3-19.4-60.5-60.1-65.8-4.1-.5-26-1-48.6-1H423v116.5zm87.8-89c19.6 4.6 29.2 17.6 29.2 39.5 0 17.7-6.3 29.6-18.9 35.9-9.8 4.9-14.5 5.6-41.6 5.6h-25l-.3-41.3-.2-41.2h25.2c18.8 0 26.9.4 31.6 1.5zM645 513.5V630h46.3c25.4 0 50-.5 54.7-1 21.1-2.4 35.5-8.5 47.2-20.1 12.3-12 16.9-24.1 16.9-43.9 0-18.4-4.5-31-15.1-42.3-6.8-7.3-14.3-12-24.8-15.7l-7.6-2.7 5.9-1.8c20.3-5.9 30.7-20.1 32.1-44 1.7-27.4-12.1-47.7-38.4-56.5-13-4.3-22.7-5-71.4-5H645v116.5zm96.1-89.1c9.1 2 15.9 5.6 20.8 11.2 5.6 6.4 7.5 13 6.9 24.8-.5 10.5-3.2 17.1-9.3 22.4-9.8 8.7-18 10.2-54.5 10.2h-28v-70h28.8c20.8 0 30.5.4 35.3 1.4zm11.2 97.8c9.1 3.5 14.3 7.3 18.3 13.3 5.2 7.9 6.7 14.8 6.2 28.4-.3 10.2-.7 12.4-3.2 17.8-3.3 7.3-10.4 14.4-17.2 17.4-9.3 4.2-16.3 4.9-48.6 4.9H677v-85.1l34.3.3c34.1.4 34.2.4 41 3z"/></svg>