<svg version="1" xmlns="http://www.w3.org/2000/svg" width="1440" height="1440" viewBox="0 0 1080.000000 1080.000000"><path d="M505.5 1.1C473.6 3 439.2 8.6 404 17.6 298.7 44.7 205 102.8 132.5 186 87.9 237.1 52.7 297.7 30.3 362-8.9 474.3-10 595.6 27.2 709c13.5 41.4 35.9 87.9 60.2 125.3 67 103.3 169.6 181.9 286.6 219.5 84 27 171.6 33.2 258 18.1 75.4-13.1 143-40.1 207.2-82.6 60-39.7 114-94.2 153.4-155 24.3-37.4 46.7-83.9 60.2-125.3 56.2-171.6 24-357.6-86.7-500.5C895.2 117 793.7 49.2 683 19.5 622.2 3.2 567.3-2.5 505.5 1.1zM697.1 178c22.8 2.3 49.6 9.4 69.8 18.5 5.3 2.4 11.4 4.7 13.6 5 27.4 4.6 67.1 17.7 91.9 30.4 28.4 14.6 49.2 30 69.6 51.7 22.7 24.1 38.3 55.2 44.6 88.9 2.6 13.9 2.6 51.6.1 65.5-8.5 45.4-27.9 87.5-59.9 130.4l-10.7 14.3 1.6 4.4c2.8 7.5 2.3 20.7-1.1 31.4-20.9 66.3-65.2 126-129.2 174-15.1 11.4-34.5 24-48.8 31.9l-11.9 6.5-11.7 31c-7.2 19.3-13 33-15.2 36.4-4.2 6.2-10.1 11.4-17.3 15-2.7 1.3-34.5 10.9-70.5 21.3-64.9 18.6-65.6 18.8-75 18.7-15.6-.1-29.1-6-39.6-17.6-6.2-6.7-10.1-14.8-12.1-24.6-1.9-9.3-1.1-19.1 4.5-53.1l3.8-22.5-10.6-10.3-10.5-10.4-15 1.6c-40.2 4.3-73.4 5.4-104 3.7-76.8-4.4-136.8-21.2-186.5-52.2-46.7-29.1-77.1-68.4-88.9-115-4.2-16.8-5.4-29.6-4.8-51 .9-34.9 9.5-66.5 28-103.4 38.1-76.1 118.8-153.3 218.2-209 72.3-40.5 153.8-70 234.5-85.1 16.2-3 21.1-4.3 29.1-7.9 19.5-8.7 47-16.2 68-18.4 12.1-1.2 34-1.3 46-.1z"/><path d="M486.5 259.9c-67.4 21.6-135 55.2-190.1 94.4-88.4 62.8-146.9 136.5-165.3 208-9.3 35.8-7.8 71.9 4 101.7 18.4 46.2 60.3 81.6 120.9 102.3 22.6 7.7 44.6 12.4 73.4 15.9 25.1 3.1 76.9 3.2 105.3.4 10.6-1.1 19.7-2.3 20.3-2.6.8-.5.7-3.2-.4-9.1-.8-4.6-1.8-13.2-2.2-19.1l-.6-10.7-27.1-15.3c-23.1-13-28.1-16.3-33.7-21.8-18.9-18.8-21.9-46.9-7.4-68 2.4-3.6 6.1-7.8 8.2-9.3 2-1.5 6-4.5 8.7-6.6 6.7-5.2 21.8-15.6 66.5-46.1l37.6-25.5-4.9-6c-16.2-19.8-29.4-44.4-38.3-70.9-23.1-69.5-10.2-146.6 34.6-206.1 4.4-5.8 7.4-10.5 6.7-10.5-.6.1-7.9 2.3-16.2 4.9zM859 271.4c0 .2 2.8 4.8 6.2 10.2 38.2 60.8 45.1 136.4 18.7 203.2-7 17.5-20.9 42-30.7 54-1.9 2.3-3.3 4.5-3 4.7.6.6 26.6 9.5 27.6 9.5.9-.1 5.5-6.3 15-20.7 45.7-68.9 56.3-137.3 29.8-192.8-8.9-18.6-22.5-36.1-38.9-50.1-8.7-7.5-24.7-19.1-24.7-18z"/><path d="M732.5 578c-13.6 1.2-39.6 5.5-54.6 9-16.4 3.7-48.2 14.3-63 20.9l-11 4.9-20.7-7.5c-54.9-19.9-50.8-18.5-54.7-17.7-1.6.4-19.9 12.1-40.5 26.2-54.5 37.1-65.9 45.2-67.6 47.8-2 2.9-1.1 7.5 1.9 10.4 1.2 1.1 19.1 11.6 39.7 23.3 30.5 17.3 37.5 21.6 37.3 23.2-.1 1.1-.7 7.1-1.4 13.4-1.3 12.8-.7 26.6 1.6 35.7 4.6 17.8 17.7 32 37 39.8 3 1.3 5.8 2.5 6.1 2.8.3.3-2.5 18.3-6.1 40.1-9.3 55.8-9.3 55.6-1.7 57.7 3.4.9 9-.5 65.5-16.8 33.9-9.8 62-18.1 62.3-18.5.3-.3 6.8-17.1 14.4-37.2 7.7-20.2 14-36.8 14.2-37 .2-.1 5.5-2.8 11.8-6 55.5-27.7 107.6-73 139.3-121 11.4-17.4 24.5-44.6 30.3-63.3l2.3-7.3-4.7-2.1c-21.5-9.3-44.6-15.7-67.7-18.9-16.8-2.3-54.7-3.3-70-1.9zm-9.5 49.1c17.8 4.1 32.6 19.2 37.5 38.4 7.6 29.9-17 61.4-48.1 61.5-14.9 0-27.7-5.3-37.2-15.4-10.3-11.1-14.2-20.9-14.2-35.9 0-22.1 13.8-40.9 35-47.5 7.3-2.3 19.6-2.8 27-1.1z"/></svg>