<?xml version="1.0" encoding="UTF-8" standalone="no"?>
<svg
   xmlns:dc="http://purl.org/dc/elements/1.1/"
   xmlns:cc="http://creativecommons.org/ns#"
   xmlns:rdf="http://www.w3.org/1999/02/22-rdf-syntax-ns#"
   xmlns:svg="http://www.w3.org/2000/svg"
   xmlns="http://www.w3.org/2000/svg"
   xmlns:sodipodi="http://sodipodi.sourceforge.net/DTD/sodipodi-0.dtd"
   xmlns:inkscape="http://www.inkscape.org/namespaces/inkscape"
   width="512"
   height="512"
   viewBox="0 0 512 512"
   version="1.1"
   id="svg8"
   inkscape:export-filename="/home/ludwig/bitmap.png"
   inkscape:export-xdpi="192"
   inkscape:export-ydpi="192"
   inkscape:version="1.0.1 (3bc2e813f5, 2020-09-07)"
   sodipodi:docname="logo-path.svg">
  <defs
     id="defs2" />
  <sodipodi:namedview
     id="base"
     pagecolor="#ffffff"
     bordercolor="#666666"
     borderopacity="1.0"
     inkscape:pageopacity="0.0"
     inkscape:pageshadow="2"
     inkscape:zoom="7.3502373"
     inkscape:cx="290.79914"
     inkscape:cy="255.21361"
     inkscape:document-units="px"
     inkscape:current-layer="text843"
     inkscape:document-rotation="0"
     showgrid="true"
     units="px"
     inkscape:showpageshadow="false"
     inkscape:pagecheckerboard="true"
     inkscape:window-width="1920"
     inkscape:window-height="1056"
     inkscape:window-x="0"
     inkscape:window-y="0"
     inkscape:window-maximized="1">
    <inkscape:grid
       type="xygrid"
       id="grid833"
       spacingx="64"
       spacingy="64"
       empspacing="0" />
    <inkscape:grid
       type="xygrid"
       id="grid835"
       spacingx="16"
       spacingy="16"
       empspacing="0"
       color="#dc3fff"
       opacity="0.1254902"
       empcolor="#eb3fa3"
       empopacity="0.09803922" />
  </sodipodi:namedview>
  <metadata
     id="metadata5">
    <rdf:RDF>
      <cc:Work
         rdf:about="">
        <dc:format>image/svg+xml</dc:format>
        <dc:type
           rdf:resource="http://purl.org/dc/dcmitype/StillImage" />
        <dc:title></dc:title>
      </cc:Work>
    </rdf:RDF>
  </metadata>
  <g
     inkscape:label="Layer 1"
     inkscape:groupmode="layer"
     id="layer1">
    <rect
       style="fill:#000000;stroke:none;stroke-width:1;fill-opacity:1;stroke-miterlimit:4;stroke-dasharray:none"
       id="rect837"
       width="384"
       height="384"
       x="64"
       y="64" />
    <rect
       style="fill:#ffffff;fill-opacity:1;stroke:none;stroke-width:1;stroke-miterlimit:4;stroke-dasharray:none"
       id="rect839"
       width="352"
       height="352"
       x="80"
       y="80" />
    <g
       aria-label="ERB"
       id="text843"
       style="font-style:normal;font-variant:normal;font-weight:normal;font-stretch:normal;font-size:160px;line-height:1.25;font-family:sans-serif;-inkscape-font-specification:'sans-serif, Normal';font-variant-ligatures:normal;font-variant-caps:normal;font-variant-numeric:normal;font-variant-east-asian:normal;fill:#000000;fill-opacity:1;stroke:none">
      <path
         d="m 110.34039,198.40961 h 73.75 v 13.28125 h -57.96875 v 34.53125 h 55.54687 v 13.28125 h -55.54687 v 42.26562 h 59.375 v 13.28125 h -75.15625 z"
         id="path863" />
      <path
         d="m 266.74664,260.36273 q 5.07812,1.71875 9.84375,7.34375 4.84375,5.625 9.6875,15.46875 l 16.01562,31.875 h -16.95312 l -14.92188,-29.92187 q -5.78125,-11.71875 -11.25,-15.54688 -5.39062,-3.82812 -14.76562,-3.82812 h -17.1875 v 49.29687 H 211.43414 V 198.40961 h 35.625 q 20,0 29.84375,8.35937 9.84375,8.35938 9.84375,25.23438 0,11.01562 -5.15625,18.28125 -5.07813,7.26562 -14.84375,10.07812 z m -39.53125,-48.98437 v 41.40625 h 19.84375 q 11.40625,0 17.1875,-5.23438 5.85937,-5.3125 5.85937,-15.54687 0,-10.23438 -5.85937,-15.39063 -5.78125,-5.23437 -17.1875,-5.23437 z"
         id="path865" />
      <path
         d="m 338.38726,259.34711 v 42.73437 h 25.3125 q 12.73438,0 18.82813,-5.23437 6.17187,-5.3125 6.17187,-16.17188 0,-10.9375 -6.17187,-16.09375 -6.09375,-5.23437 -18.82813,-5.23437 z m 0,-47.96875 v 35.15625 h 23.35938 q 11.5625,0 17.1875,-4.29688 5.70312,-4.375 5.70312,-13.28125 0,-8.82812 -5.70312,-13.20312 -5.625,-4.375 -17.1875,-4.375 z m -15.78125,-12.96875 h 40.3125 q 18.04688,0 27.8125,7.5 9.76563,7.5 9.76563,21.32812 0,10.70313 -5,17.03125 -5,6.32813 -14.6875,7.89063 11.64062,2.5 18.04687,10.46875 6.48438,7.89062 6.48438,19.76562 0,15.625 -10.625,24.14063 -10.625,8.51562 -30.23438,8.51562 h -41.875 z"
         id="path867" />
    </g>
  </g>
</svg>
